<?xml version="1.0" encoding="utf-8"?>
<!-- Svg Vector Icons : http://www.onlinewebfonts.com/icon -->
<!DOCTYPE svg PUBLIC "-//W3C//DTD SVG 1.1//EN" "http://www.w3.org/Graphics/SVG/1.1/DTD/svg11.dtd">
<svg version="1.1" xmlns="http://www.w3.org/2000/svg" xmlns:xlink="http://www.w3.org/1999/xlink" x="0px" y="0px" viewBox="0 0 1000 1000" enable-background="new 0 0 1000 1000" xml:space="preserve">
<metadata> Svg Vector Icons : http://www.onlinewebfonts.com/icon </metadata>
<g><path d="M500.5,356.2c0-85.9-69.4-157.1-153.1-157.1c-83.7,0-153.1,71.2-153.1,157.1c0,85.9,69.4,157.1,153.1,157.1C431.1,513.2,500.5,442.1,500.5,356.2z M255.5,356.2c0-52.4,40.8-94.2,91.9-94.2s91.9,41.9,91.9,94.2c0,52.4-40.8,94.2-91.9,94.2S255.5,408.5,255.5,356.2z"/><path d="M500.5,768.7l59.2-8.4L527,553l-110.3-37.7L398.4,574l75.5,25.1L500.5,768.7z"/><path d="M133,758.3l61.2,10.5L218.7,597l75.5-25.1l-18.4-58.6l-110.3,37.7L133,758.3z"/><path d="M623,270.2h122.5v71.1H623V270.2z"/><path d="M623,412.4h245v71.1H623V412.4L623,412.4z"/><path d="M623,554.5h245v71.1H623V554.5z"/><path d="M623,696.6h245v71.1H623V696.6z"/><path d="M861.9,10H138.1C67.3,10,10,62.7,10,127.6v744.8C10,937.3,67.3,990,138.1,990h208.8v-59H181.7c-62.2,0-112.6-46.3-112.6-103.4v-655c0-57.1,50.4-103.4,112.6-103.4h636.6c62.2,0,112.6,46.3,112.6,103.4v655c0,57.1-50.4,103.4-112.6,103.4H653.1V990h208.8c70.7,0,128.1-52.7,128.1-117.6V127.6C990,62.7,932.7,10,861.9,10z"/><path d="M555.7,924.4H444.3c-18.1,0-32.8,14.7-32.8,32.8c0,18.1,14.7,32.8,32.8,32.8h111.4c18.1,0,32.8-14.7,32.8-32.8C588.5,939,573.8,924.4,555.7,924.4z"/></g>
</svg>